<svg width="134" height="20" viewBox="0 0 134 20" fill="none" xmlns="http://www.w3.org/2000/svg">
<path d="M47.6783 11.6102C47.6783 12.5336 47.4445 13.2325 46.9768 13.707C46.4621 14.1698 45.7944 14.4259 45.1023 14.4259C44.4102 14.4259 43.7425 14.1698 43.2278 13.707C42.7533 13.2239 42.516 12.5284 42.516 11.6205V2.75555H38.8596V11.4175C38.8596 13.4903 39.4488 15.1014 40.6274 16.2509C41.8581 17.3473 43.4489 17.9531 45.0972 17.9531C46.7454 17.9531 48.3362 17.3473 49.5669 16.2509C50.7455 15.1014 51.3348 13.4903 51.3348 11.4175V2.75555H47.6783V11.6102ZM63.237 10.9499L57.0186 2.75555H53.8889V17.659H57.4863V9.41841L63.7843 17.6564H66.8086V2.75298H63.237V10.9499ZM69.7251 17.6564H73.3816V2.75298H69.7251V17.6564ZM88.1154 7.77903C88.1154 3.8399 85.1681 2.75555 82.2825 2.75555H76.2878V17.659H80.047V12.8051H81.6735L85.0679 17.659H89.3154L85.3943 12.2629C86.9566 11.5897 88.1154 10.2355 88.1154 7.77903ZM82.447 9.61113H80.0496V6.16021H82.447C83.5236 6.16021 84.2457 6.73579 84.2457 7.88438C84.2457 9.03298 83.5108 9.60856 82.4444 9.60856L82.447 9.61113ZM97.1551 2.45748C96.152 2.43147 95.1548 2.61918 94.2297 3.00816C93.3047 3.39713 92.473 3.97847 91.7899 4.71355C90.3801 6.18941 89.6131 8.16415 89.6572 10.2047C89.6124 12.2461 90.3794 14.2219 91.7899 15.6984C92.4888 16.4125 93.3233 16.9798 94.2444 17.3672C95.1655 17.7545 96.1546 17.954 97.1538 17.954C98.1531 17.954 99.1422 17.7545 100.063 17.3672C100.984 16.9798 101.819 16.4125 102.518 15.6984C103.928 14.2219 104.695 12.2461 104.651 10.2047C104.697 8.16524 103.933 6.19065 102.526 4.71355C101.842 3.97781 101.009 3.39609 100.083 3.00709C99.1573 2.61809 98.1591 2.43073 97.1551 2.45748ZM99.8172 13.2291C99.4799 13.6034 99.0677 13.9026 98.6073 14.1075C98.147 14.3123 97.6487 14.4182 97.1449 14.4182C96.641 14.4182 96.1427 14.3123 95.6824 14.1075C95.222 13.9026 94.8098 13.6034 94.4725 13.2291C93.7685 12.4496 93.4164 11.4415 93.4164 10.2047C93.4164 8.96788 93.7685 7.96061 94.4725 7.18289C94.8098 6.80859 95.222 6.50932 95.6824 6.30448C96.1427 6.09963 96.641 5.99378 97.1449 5.99378C97.6487 5.99378 98.147 6.09963 98.6073 6.30448C99.0677 6.50932 99.4799 6.80859 99.8172 7.18289C100.549 8.0157 100.934 9.09689 100.894 10.2047C100.935 11.3134 100.549 12.3956 99.8172 13.2291ZM111.239 13.2496C110.834 12.8558 110.516 12.3813 110.306 11.8567C110.096 11.3321 109.999 10.7693 110.021 10.2047C110.004 9.64901 110.1 9.09564 110.304 8.57841C110.508 8.06119 110.815 7.59098 111.207 7.19655C111.598 6.80211 112.067 6.49172 112.582 6.28438C113.098 6.07703 113.651 5.97707 114.207 5.99062C115.499 5.9845 116.765 6.36187 117.843 7.07497V3.29772C116.703 2.72433 115.441 2.436 114.166 2.45748C111.889 2.45748 109.999 3.18124 108.497 4.62875C106.995 6.07627 106.25 7.93492 106.262 10.2047C106.262 12.4762 107.014 14.3357 108.518 15.7832C110.022 17.2307 111.911 17.9511 114.186 17.9442C115.544 17.9634 116.885 17.6419 118.087 17.0089V13.2291C117.085 14.0239 115.838 14.4213 114.348 14.4213C113.197 14.4581 112.079 14.0367 111.239 13.2496ZM127.478 9.60856L132.985 2.75555H128.596L123.984 8.43684V2.75555H120.325V17.659H123.981V11.0347L129.55 17.6564H134L127.478 9.60856Z" fill="#353535"/>
<path fill-rule="evenodd" clip-rule="evenodd" d="M13.5749 1.14441e-05V19.6391H32.3121V1.14441e-05H13.5749ZM26.4998 13.539H19.3872V6.10014H26.4998V13.539Z" fill="#FF1C2E"/>
<path d="M7.07656 6.10008H0V13.5364H7.07656V6.10008Z" fill="#FF1C2E"/>
</svg>